<?xml version="1.0" encoding="UTF-8" standalone="no"?>
<svg
   xmlns:dc="http://purl.org/dc/elements/1.1/"
   xmlns:cc="http://creativecommons.org/ns#"
   xmlns:rdf="http://www.w3.org/1999/02/22-rdf-syntax-ns#"
   xmlns:svg="http://www.w3.org/2000/svg"
   xmlns="http://www.w3.org/2000/svg"
   xmlns:sodipodi="http://sodipodi.sourceforge.net/DTD/sodipodi-0.dtd"
   xmlns:inkscape="http://www.inkscape.org/namespaces/inkscape"
   data-name="Layer 1"
   viewBox="0 0 29.56 29.56"
   fill="#fff"
   version="1.1"
   id="svg10"
   sodipodi:docname="ig-logo.svg"
   inkscape:version="0.92.5 (2060ec1f9f, 2020-04-08)">
  <metadata
     id="metadata16">
    <rdf:RDF>
      <cc:Work
         rdf:about="">
        <dc:format>image/svg+xml</dc:format>
        <dc:type
           rdf:resource="http://purl.org/dc/dcmitype/StillImage" />
      </cc:Work>
    </rdf:RDF>
  </metadata>
  <defs
     id="defs14" />
  <sodipodi:namedview
     pagecolor="#ffffff"
     bordercolor="#666666"
     borderopacity="1"
     objecttolerance="10"
     gridtolerance="10"
     guidetolerance="10"
     inkscape:pageopacity="0"
     inkscape:pageshadow="2"
     inkscape:window-width="1920"
     inkscape:window-height="1021"
     id="namedview12"
     showgrid="false"
     inkscape:zoom="7.983762"
     inkscape:cx="-68.200932"
     inkscape:cy="14.78"
     inkscape:window-x="0"
     inkscape:window-y="33"
     inkscape:window-maximized="1"
     inkscape:current-layer="svg10" />
  <title
     id="title2">Glyph</title>
  <path
     d="M14.77 7.18a7.59 7.59 0 1 0 7.59 7.59 7.59 7.59 0 0 0-7.59-7.59zm0 12.52a4.93 4.93 0 1 1 4.93-4.93 4.93 4.93 0 0 1-4.93 4.93z"
     id="path4"
     style="fill:#ffffff;fill-opacity:1" />
  <circle
     cx="22.66"
     cy="6.9"
     r="1.77"
     id="circle6"
     style="fill:#ffffff;fill-opacity:1" />
  <path
     d="M28.78 5.1A7.56 7.56 0 0 0 24.46.78a10.85 10.85 0 0 0-3.59-.69C19.29.02 18.79 0 14.78 0s-4.52 0-6.09.09A10.85 10.85 0 0 0 5.1.78 7.56 7.56 0 0 0 .78 5.1a10.85 10.85 0 0 0-.69 3.59C.02 10.27 0 10.77 0 14.78s0 4.52.09 6.09a10.85 10.85 0 0 0 .69 3.59 7.56 7.56 0 0 0 4.32 4.32 10.85 10.85 0 0 0 3.59.74c1.58.07 2.08.09 6.09.09s4.52 0 6.09-.09a10.85 10.85 0 0 0 3.59-.69 7.56 7.56 0 0 0 4.32-4.32 10.85 10.85 0 0 0 .69-3.59c.07-1.58.09-2.08.09-6.09s0-4.52-.09-6.09a10.85 10.85 0 0 0-.69-3.64zm-2 15.65a8.18 8.18 0 0 1-.51 2.77 4.9 4.9 0 0 1-2.81 2.81 8.18 8.18 0 0 1-2.74.51c-1.56.07-2 .09-6 .09s-4.41 0-6-.09a8.18 8.18 0 0 1-2.74-.51 4.89 4.89 0 0 1-2.82-2.81 8.18 8.18 0 0 1-.51-2.74c-.07-1.56-.09-2-.09-6s0-4.41.09-6a8.18 8.18 0 0 1 .51-2.77A4.89 4.89 0 0 1 5.98 3.2a8.18 8.18 0 0 1 2.74-.51c1.56-.07 2-.09 6-.09s4.41 0 6 .09a8.18 8.18 0 0 1 2.74.51 4.9 4.9 0 0 1 2.81 2.81 8.18 8.18 0 0 1 .51 2.74c.07 1.56.09 2 .09 6s0 4.43-.07 6z"
     id="path8"
     style="fill:#ffffff;fill-opacity:1" />
</svg>
