<?xml version="1.0" encoding="UTF-8" standalone="no"?>
<!-- Created with Inkscape (http://www.inkscape.org/) -->

<svg
   xmlns:dc="http://purl.org/dc/elements/1.1/"
   xmlns:cc="http://creativecommons.org/ns#"
   xmlns:rdf="http://www.w3.org/1999/02/22-rdf-syntax-ns#"
   xmlns:svg="http://www.w3.org/2000/svg"
   xmlns="http://www.w3.org/2000/svg"
   xmlns:sodipodi="http://sodipodi.sourceforge.net/DTD/sodipodi-0.dtd"
   xmlns:inkscape="http://www.inkscape.org/namespaces/inkscape"
   version="1.1"
   id="svg2"
   xml:space="preserve"
   width="336"
   height="384"
   viewBox="0 0 336 384"
   sodipodi:docname="logo.svg"
   inkscape:version="0.92.5 (2060ec1f9f, 2020-04-08)"><metadata
     id="metadata8"><rdf:RDF><cc:Work
         rdf:about=""><dc:format>image/svg+xml</dc:format><dc:type
           rdf:resource="http://purl.org/dc/dcmitype/StillImage" /><dc:title></dc:title></cc:Work></rdf:RDF></metadata><defs
     id="defs6"><clipPath
       clipPathUnits="userSpaceOnUse"
       id="clipPath18"><path
         d="M 0,288 H 252 V 0 H 0 Z"
         id="path16"
         inkscape:connector-curvature="0" /></clipPath></defs><sodipodi:namedview
     pagecolor="#ffffff"
     bordercolor="#666666"
     borderopacity="1"
     objecttolerance="10"
     gridtolerance="10"
     guidetolerance="10"
     inkscape:pageopacity="0"
     inkscape:pageshadow="2"
     inkscape:window-width="1920"
     inkscape:window-height="1021"
     id="namedview4"
     showgrid="false"
     inkscape:zoom="1.7383042"
     inkscape:cx="59.522027"
     inkscape:cy="232.26212"
     inkscape:window-x="0"
     inkscape:window-y="33"
     inkscape:window-maximized="1"
     inkscape:current-layer="layer1" /><g
     inkscape:groupmode="layer"
     id="layer1"
     inkscape:label="Sunrise_Primary_Yellow 1"><g
       transform="matrix(1.3333333,0,0,-1.3333333,0,384)"
       id="g4539"><g
         clip-path="url(#clipPath18)"
         id="g4537"><g
           transform="translate(190.8496,177.2085)"
           id="g4535"><path
             inkscape:connector-curvature="0"
             id="path4533"
             style="fill:#ffde17;fill-opacity:1;fill-rule:nonzero;stroke:none"
             d="M 0,0 -47.812,38.707 H -18.126 0 Z m -111.573,38.707 h 29.757 L -129.699,0.264 v 38.443 z m -18.126,12 V 79.43 h 33.626 c -8.104,-7.295 -13.64,-17.379 -15.102,-28.723 z m 30.645,0 c 2.849,16.297 17.103,28.723 34.204,28.723 17.102,0 31.356,-12.426 34.205,-28.723 z m 40.463,-28.845 57.109,-99.976 -57.283,-57.281 z m -11.999,0.555 -0.175,-157.983 -57.447,57.447 z m -59.109,-37.542 44.014,35.336 -44.014,-76.793 z M 0,-56.516 -43.648,19.896 0,-15.44 Z M -18.524,50.707 c -1.462,11.344 -6.997,21.428 -15.102,28.723 H 0 V 50.707 Z M -141.699,92.034 V 91.43 38.707 -81.601 l 76.849,-76.85 76.85,76.85 V 38.707 91.43 92.034 Z" /></g></g></g></g></svg>